<?xml version="1.0" encoding="UTF-8" standalone="no"?>
<svg
   width="235"
   height="110"
   viewBox="0 0 235 110"
   version="1.1"
   id="svg18"
   sodipodi:docname="zero-lliurex-traduia_new.svg"
   inkscape:version="1.2.2 (b0a8486541, 2022-12-01)"
   xmlns:inkscape="http://www.inkscape.org/namespaces/inkscape"
   xmlns:sodipodi="http://sodipodi.sourceforge.net/DTD/sodipodi-0.dtd"
   xmlns="http://www.w3.org/2000/svg"
   xmlns:svg="http://www.w3.org/2000/svg">
  <defs
     id="defs22" />
  <sodipodi:namedview
     id="namedview20"
     pagecolor="#ffffff"
     bordercolor="#000000"
     borderopacity="0.25"
     inkscape:showpageshadow="2"
     inkscape:pageopacity="0.0"
     inkscape:pagecheckerboard="0"
     inkscape:deskcolor="#d1d1d1"
     showgrid="false"
     inkscape:zoom="1.8541911"
     inkscape:cx="90.066228"
     inkscape:cy="-69.032798"
     inkscape:window-width="1584"
     inkscape:window-height="976"
     inkscape:window-x="0"
     inkscape:window-y="0"
     inkscape:window-maximized="1"
     inkscape:current-layer="g259" />
  <g
     id="g259"
     transform="matrix(0.29653099,0,0,0.29653099,-15.74872,-59.748315)">
    <path
       fill="#02385a"
       d="m 618.363,315.853 c 8.037,-1.479 30.594,-0.42 39.436,-0.414 l 61.654,-0.015 37.46,0.006 c 7.489,0.009 21.647,-1.571 27.348,3.704 3.746,3.466 4.556,8.283 4.559,13.249 0.018,29.629 0.108,59.29 0.093,88.92 0.355,6.546 -0.714,14.186 -7.823,16.94 -7.621,2.953 -20.066,1.812 -28.457,1.73 l -0.037,9.715 0.025,25.778 c -12.122,-11.729 -24.164,-23.542 -36.123,-35.437 -31.036,-0.903 -62.601,0.766 -93.682,-0.202 -14.003,-0.436 -15.679,-10.634 -15.599,-21.934 0.221,-30.982 -0.342,-61.933 0.232,-92.9 0.14,-7.99 4.198,-8.382 10.914,-9.14 z m 33.029,104.789 21.29,-0.005 c 2.756,-6.41 5.411,-12.864 7.963,-19.358 l 30.449,-0.01 11.187,0.014 c 2.694,6.403 5.344,12.825 7.949,19.264 l 21.746,-0.004 -40.067,-89.446 -20.609,-0.091 c -12.562,29.606 -26.776,60.142 -39.908,89.636 z"
       id="path2" />
    <path
       fill="#02385a"
       d="m 701.447,351.676 c 2.873,4.908 11.869,27.918 14.337,33.877 l -12.972,-0.008 -15.354,-0.035 c 4.415,-11.243 9.332,-22.662 13.989,-33.834 z"
       id="path4" />
    <path
       fill="#02385a"
       d="m 510.646,276.424 c 1.22,-0.052 2.44,-0.091 3.661,-0.118 30.922,-0.639 64.058,-0.064 95.128,-0.067 l 35.172,0.004 c 35.028,0.017 35.932,-1.913 35.388,33.66 -16.647,-0.543 -36.195,0.491 -52.002,-0.15 -28.601,-1.161 -27.15,7.505 -27.029,32.676 0.044,9.307 0.078,20.159 0.126,29.602 l 0.092,28.721 c -8.004,-0.03 -22.818,-0.443 -30.19,0.5 l -35.772,35.174 0.187,-35.683 c -7.056,-0.235 -34.845,2.782 -35.541,-9.257 -1.895,-32.782 -0.4,-66.405 -0.678,-99.348 -0.073,-8.644 3.416,-12.977 11.458,-15.714 z m 53.368,21.031 c -0.032,29.211 -0.587,60.616 -0.015,89.66 l 20.846,-0.143 0.125,-89.541 z"
       id="path6" />
    <path
       fill="#02385a"
       d="m 366.257,298.758 12.243,-0.002 c 0.39,10.055 0.072,22.359 0.071,32.528 l -0.026,62.335 -11.755,0.003 -0.137,-10.085 c -11.936,12.37 -26.178,13.852 -41.515,6.635 -29.874,-19.341 -17.996,-65.663 18.227,-65.074 9.787,0.159 16.401,4.011 22.931,10.937 z m -18.498,84.123 c 8.313,-1.512 15.169,-7.382 17.943,-15.363 2.775,-7.981 1.039,-16.838 -4.544,-23.181 -5.582,-6.343 -14.146,-9.19 -22.415,-7.452 -12.546,2.637 -20.646,14.865 -18.179,27.445 2.466,12.581 14.582,20.846 27.195,18.551 z"
       id="path8" />
    <path
       fill="#02385a"
       d="m 262.309,325.29 c 12.895,-0.882 26.805,5.382 28.931,18.747 2.419,15.209 1.309,34.222 1.248,49.675 l -11.91,-0.043 0.082,-8.241 c -12.699,12.658 -37.001,12.811 -46.179,-3.961 -2.265,-6.425 -1.534,-15.215 3.755,-19.963 10.144,-9.107 29.14,-7.113 41.927,-7.07 -0.8,-24.597 -24.186,-21.359 -39.758,-11.45 l -5.424,-9.001 c 9.727,-6.576 15.938,-7.97 27.328,-8.693 z m 7.086,58.066 c 10.041,-4.867 10.809,-9.121 10.628,-19.732 -7.677,-0.067 -17.666,-0.414 -25.18,0.191 -19.875,6.147 -5.327,27.333 14.552,19.541 z"
       id="path10" />
    <path
       fill="#02385a"
       d="m 401.876,325.724 12.468,-0.079 c 0.289,17.802 -6.846,56.574 16.671,57.693 29.629,1.41 22.274,-38.051 22.411,-57.595 l 12.289,-0.082 c 0.134,7.177 0.019,14.785 0.025,21.995 l -0.106,45.983 -11.53,0.061 c -0.029,-3.112 -0.086,-6.223 -0.174,-9.334 -14.495,15.637 -46.443,13.457 -50.773,-9.674 -2.617,-13.98 -1.32,-34.145 -1.281,-48.968 z"
       id="path12" />
    <path
       fill="#02385a"
       d="m 99.3701,304.012 c 21.9839,-0.98 51.8419,-0.178 74.2239,-0.128 l -0.032,11.125 -30.812,0.011 c 0.481,14.673 0.074,32.045 0.057,46.907 0.029,10.591 0.002,21.182 -0.081,31.773 h -12.581 c -0.288,-26.03 -0.006,-52.561 0.012,-78.63 -10.243,-0.06 -20.487,-0.046 -30.7301,0.042 z"
       id="path14" />
    <path
       fill="#02385a"
       d="m 219.751,325.281 1.634,0.083 c 1.09,1.957 0.691,8.723 0.669,11.468 -23.973,1.432 -24.614,13.675 -24.24,34.607 0.128,7.208 0.015,15.004 -0.124,22.258 l -12.092,0.002 -0.055,-6.984 0.004,-60.854 c 3.787,-0.169 8.108,-0.134 11.94,-0.19 l -0.027,10.936 c 0.478,-0.692 0.993,-1.358 1.541,-1.996 6.024,-7.012 11.936,-8.698 20.75,-9.33 z"
       id="path16" />
  </g>
</svg>
